<svg width="814" height="814" viewBox="0 0 814 814" fill="none" xmlns="http://www.w3.org/2000/svg">
<g clip-path="url(#clip0_1224_894)">
<path fill-rule="evenodd" clip-rule="evenodd" d="M99.3639 315.487H14.7554C16.126 328.967 19.2513 333.411 31.0744 333.062H65.13L65.1299 388.367H65.0187C37.9766 387.223 31.7295 395.186 31.405 419.819V469.734H31.4133L65.1297 488.64V488.68L82.7236 498.506L82.7374 498.513V478.409L82.7236 478.401V405.449C112.783 405.328 122.95 401.147 131.047 388.482C140.49 374.405 141.649 350.789 131.121 333.062C123.671 323.163 116.844 316.094 99.3639 315.487ZM97.7688 388.367C131.152 387.252 132.471 333.062 96.7288 333.062H82.7236V388.367H97.7688ZM65.1298 405.451H65.0187C53.168 405.408 49.57 407.957 48.9986 419.819V459.445L65.1297 468.512L65.1298 405.451Z" fill="black"/>
<path d="M173.352 366.21V447.79" stroke="black" stroke-width="2.67474"/>
<path d="M230.984 454V366.327H270.425C274.444 366.327 278.045 366.996 281.227 368.336C284.493 369.592 287.256 371.435 289.517 373.863C291.778 376.208 293.494 379.055 294.667 382.404C295.839 385.754 296.425 389.438 296.425 393.458C296.425 397.561 295.839 401.287 294.667 404.637C293.494 407.902 291.778 410.749 289.517 413.178C287.256 415.522 284.493 417.365 281.227 418.705C278.045 419.961 274.444 420.589 270.425 420.589H247.564V454H230.984ZM247.564 406.269H268.917C272.099 406.269 274.611 405.432 276.454 403.757C278.296 401.999 279.217 399.529 279.217 396.347V390.569C279.217 387.387 278.296 384.958 276.454 383.283C274.611 381.609 272.099 380.771 268.917 380.771H247.564V406.269ZM326.176 454V388.433H342.254V401.999H342.882C343.301 400.24 343.929 398.566 344.766 396.975C345.687 395.3 346.859 393.834 348.283 392.578C349.707 391.322 351.381 390.317 353.307 389.564C355.317 388.81 357.62 388.433 360.216 388.433H363.733V403.632H358.708C353.265 403.632 349.162 404.427 346.399 406.018C343.636 407.609 342.254 410.205 342.254 413.806V454H326.176ZM417.831 455.507C413.142 455.507 408.913 454.712 405.145 453.121C401.46 451.53 398.278 449.227 395.598 446.212C393.003 443.198 390.993 439.597 389.569 435.41C388.146 431.14 387.434 426.367 387.434 421.091C387.434 415.816 388.146 411.084 389.569 406.897C390.993 402.711 393.003 399.152 395.598 396.221C398.278 393.206 401.46 390.904 405.145 389.313C408.913 387.722 413.142 386.926 417.831 386.926C422.52 386.926 426.749 387.722 430.517 389.313C434.285 390.904 437.467 393.206 440.063 396.221C442.743 399.152 444.794 402.711 446.218 406.897C447.641 411.084 448.353 415.816 448.353 421.091C448.353 426.367 447.641 431.14 446.218 435.41C444.794 439.597 442.743 443.198 440.063 446.212C437.467 449.227 434.285 451.53 430.517 453.121C426.749 454.712 422.52 455.507 417.831 455.507ZM417.831 442.57C422.101 442.57 425.451 441.272 427.879 438.676C430.308 436.08 431.522 432.27 431.522 427.246V415.062C431.522 410.121 430.308 406.353 427.879 403.757C425.451 401.161 422.101 399.864 417.831 399.864C413.644 399.864 410.336 401.161 407.908 403.757C405.48 406.353 404.265 410.121 404.265 415.062V427.246C404.265 432.27 405.48 436.08 407.908 438.676C410.336 441.272 413.644 442.57 417.831 442.57ZM506.644 381.023V454H490.063V381.023H465.193V366.327H531.514V381.023H506.644ZM579.326 455.507C574.469 455.507 570.114 454.712 566.263 453.121C562.494 451.446 559.27 449.143 556.591 446.212C553.995 443.198 551.985 439.597 550.562 435.41C549.138 431.14 548.426 426.367 548.426 421.091C548.426 415.899 549.096 411.21 550.436 407.023C551.86 402.836 553.869 399.277 556.465 396.347C559.061 393.332 562.243 391.029 566.011 389.438C569.78 387.763 574.05 386.926 578.823 386.926C583.931 386.926 588.369 387.805 592.138 389.564C595.906 391.322 599.004 393.709 601.432 396.723C603.861 399.738 605.661 403.255 606.833 407.274C608.09 411.21 608.718 415.439 608.718 419.961V425.236H565.132V426.869C565.132 431.642 566.472 435.494 569.151 438.425C571.831 441.272 575.809 442.695 581.084 442.695C585.104 442.695 588.369 441.858 590.881 440.183C593.477 438.508 595.78 436.373 597.79 433.777L606.457 443.449C603.777 447.217 600.093 450.19 595.403 452.367C590.798 454.461 585.438 455.507 579.326 455.507ZM579.074 398.984C574.804 398.984 571.412 400.408 568.9 403.255C566.388 406.102 565.132 409.786 565.132 414.308V415.313H592.012V414.183C592.012 409.661 590.881 406.018 588.621 403.255C586.443 400.408 583.261 398.984 579.074 398.984ZM665.695 455.507C660.838 455.507 656.526 454.712 652.757 453.121C648.989 451.53 645.807 449.227 643.211 446.212C640.699 443.198 638.773 439.597 637.433 435.41C636.094 431.14 635.424 426.367 635.424 421.091C635.424 415.816 636.094 411.084 637.433 406.897C638.773 402.711 640.699 399.152 643.211 396.221C645.807 393.206 648.989 390.904 652.757 389.313C656.526 387.722 660.838 386.926 665.695 386.926C672.31 386.926 677.753 388.391 682.024 391.322C686.378 394.253 689.518 398.314 691.444 403.506L678.256 409.41C677.502 406.646 676.078 404.385 673.985 402.627C671.975 400.785 669.212 399.864 665.695 399.864C661.173 399.864 657.782 401.287 655.521 404.134C653.344 406.981 652.255 410.708 652.255 415.313V427.246C652.255 431.851 653.344 435.578 655.521 438.425C657.782 441.188 661.173 442.57 665.695 442.57C669.547 442.57 672.52 441.607 674.613 439.681C676.706 437.671 678.339 435.201 679.512 432.27L691.821 438.174C689.644 443.951 686.336 448.306 681.898 451.237C677.46 454.084 672.059 455.507 665.695 455.507ZM721.175 361.051H737.252V399.361H737.88C739.22 395.844 741.314 392.913 744.161 390.569C747.092 388.14 751.111 386.926 756.219 386.926C763.002 386.926 768.194 389.145 771.794 393.583C775.395 398.021 777.195 404.343 777.195 412.55V454H761.118V414.183C761.118 409.493 760.28 405.976 758.606 403.632C756.931 401.287 754.167 400.115 750.316 400.115C748.641 400.115 747.008 400.366 745.417 400.868C743.91 401.287 742.528 401.957 741.272 402.878C740.1 403.715 739.137 404.804 738.383 406.144C737.629 407.4 737.252 408.907 737.252 410.666V454H721.175V361.051Z" fill="black"/>
<path d="M246.207 529.187L242.323 533.502V542.642H239.028V515.26H242.323V529.814H242.441L246.364 525.068L254.641 515.26H258.682L248.482 526.99L259.388 542.642H255.308L246.207 529.187ZM278.406 542.642V515.26H295.118V518.163H281.701V527.343H294.333V530.246H281.701V539.739H295.118V542.642H278.406ZM315.792 542.642V515.26H332.504V518.163H319.087V527.343H331.719V530.246H319.087V539.739H332.504V542.642H315.792ZM353.178 542.642V515.26H364.084C366.542 515.26 368.425 515.966 369.733 517.379C371.067 518.765 371.733 520.674 371.733 523.106C371.733 525.538 371.067 527.461 369.733 528.873C368.425 530.259 366.542 530.952 364.084 530.952H356.473V542.642H353.178ZM356.473 528.049H364.084C365.391 528.049 366.398 527.709 367.104 527.029C367.837 526.349 368.203 525.381 368.203 524.126V522.086C368.203 520.831 367.837 519.863 367.104 519.183C366.398 518.503 365.391 518.163 364.084 518.163H356.473V528.049ZM424.92 543.113C421.441 543.113 418.735 541.936 416.799 539.582C414.864 537.203 413.896 533.711 413.896 529.108C413.896 524.505 414.864 520.975 416.799 518.516C418.735 516.032 421.441 514.789 424.92 514.789C427.221 514.789 429.143 515.312 430.687 516.359C432.256 517.405 433.472 518.882 434.335 520.792L431.667 522.4C431.118 520.988 430.281 519.863 429.157 519.026C428.032 518.163 426.62 517.732 424.92 517.732C423.743 517.732 422.684 517.954 421.742 518.399C420.827 518.843 420.042 519.484 419.388 520.321C418.761 521.132 418.277 522.112 417.937 523.263C417.597 524.388 417.427 525.656 417.427 527.068V531.148C417.427 533.973 418.081 536.183 419.388 537.778C420.696 539.373 422.54 540.171 424.92 540.171C426.672 540.171 428.137 539.726 429.313 538.837C430.49 537.922 431.353 536.719 431.903 535.228L434.531 536.876C433.668 538.811 432.426 540.341 430.804 541.465C429.183 542.564 427.221 543.113 424.92 543.113ZM463.89 543.113C462.112 543.113 460.503 542.812 459.065 542.211C457.653 541.583 456.437 540.681 455.417 539.504C454.423 538.301 453.651 536.823 453.102 535.071C452.553 533.293 452.278 531.253 452.278 528.951C452.278 526.65 452.553 524.623 453.102 522.871C453.651 521.118 454.423 519.641 455.417 518.438C456.437 517.235 457.653 516.332 459.065 515.731C460.503 515.103 462.112 514.789 463.89 514.789C465.643 514.789 467.238 515.103 468.676 515.731C470.115 516.332 471.331 517.235 472.325 518.438C473.345 519.641 474.129 521.118 474.678 522.871C475.228 524.623 475.502 526.65 475.502 528.951C475.502 531.253 475.228 533.293 474.678 535.071C474.129 536.823 473.345 538.301 472.325 539.504C471.331 540.681 470.115 541.583 468.676 542.211C467.238 542.812 465.643 543.113 463.89 543.113ZM463.89 540.171C465.067 540.171 466.153 539.962 467.146 539.543C468.14 539.125 468.99 538.523 469.696 537.739C470.429 536.954 470.991 536.013 471.383 534.914C471.775 533.816 471.972 532.587 471.972 531.227V526.676C471.972 525.316 471.775 524.087 471.383 522.988C470.991 521.89 470.429 520.948 469.696 520.164C468.99 519.379 468.14 518.778 467.146 518.359C466.153 517.941 465.067 517.732 463.89 517.732C462.713 517.732 461.628 517.941 460.634 518.359C459.64 518.778 458.777 519.379 458.045 520.164C457.339 520.948 456.79 521.89 456.397 522.988C456.005 524.087 455.809 525.316 455.809 526.676V531.227C455.809 532.587 456.005 533.816 456.397 534.914C456.79 536.013 457.339 536.954 458.045 537.739C458.777 538.523 459.64 539.125 460.634 539.543C461.628 539.962 462.713 540.171 463.89 540.171ZM506.18 543.113C504.402 543.113 502.793 542.812 501.355 542.211C499.943 541.583 498.726 540.681 497.706 539.504C496.713 538.301 495.941 536.823 495.392 535.071C494.843 533.293 494.568 531.253 494.568 528.951C494.568 526.65 494.843 524.623 495.392 522.871C495.941 521.118 496.713 519.641 497.706 518.438C498.726 517.235 499.943 516.332 501.355 515.731C502.793 515.103 504.402 514.789 506.18 514.789C507.932 514.789 509.528 515.103 510.966 515.731C512.404 516.332 513.621 517.235 514.614 518.438C515.634 519.641 516.419 521.118 516.968 522.871C517.517 524.623 517.792 526.65 517.792 528.951C517.792 531.253 517.517 533.293 516.968 535.071C516.419 536.823 515.634 538.301 514.614 539.504C513.621 540.681 512.404 541.583 510.966 542.211C509.528 542.812 507.932 543.113 506.18 543.113ZM506.18 540.171C507.357 540.171 508.442 539.962 509.436 539.543C510.43 539.125 511.28 538.523 511.986 537.739C512.718 536.954 513.281 536.013 513.673 534.914C514.065 533.816 514.261 532.587 514.261 531.227V526.676C514.261 525.316 514.065 524.087 513.673 522.988C513.281 521.89 512.718 520.948 511.986 520.164C511.28 519.379 510.43 518.778 509.436 518.359C508.442 517.941 507.357 517.732 506.18 517.732C505.003 517.732 503.918 517.941 502.924 518.359C501.93 518.778 501.067 519.379 500.335 520.164C499.629 520.948 499.079 521.89 498.687 522.988C498.295 524.087 498.099 525.316 498.099 526.676V531.227C498.099 532.587 498.295 533.816 498.687 534.914C499.079 536.013 499.629 536.954 500.335 537.739C501.067 538.523 501.93 539.125 502.924 539.543C503.918 539.962 505.003 540.171 506.18 540.171ZM538.231 542.642V515.26H541.526V539.739H553.177V542.642H538.231Z" fill="black"/>
</g>
<defs>
<clipPath id="clip0_1224_894">
<rect width="814" height="814" fill="white"/>
</clipPath>
</defs>
</svg>
